<?xml version="1.0" ?><!DOCTYPE svg  PUBLIC '-//W3C//DTD SVG 1.1//EN'  'http://www.w3.org/Graphics/SVG/1.1/DTD/svg11.dtd'><svg height="2016px" style="shape-rendering:geometricPrecision; text-rendering:geometricPrecision; image-rendering:optimizeQuality; fill-rule:evenodd; clip-rule:evenodd" viewBox="0 0 2016 2016" width="2016px" xml:space="preserve" xmlns="http://www.w3.org/2000/svg" xmlns:xlink="http://www.w3.org/1999/xlink"><defs><style type="text/css">
   <![CDATA[
    .fil4 {fill:none}
    .fil0 {fill:#1E88E5}
    .fil2 {fill:#2196F3}
    .fil1 {fill:#64B5F6}
    .fil3 {fill:white}
   ]]>
  </style></defs><g id="Layer_x0020_1"><g id="_274161136"><circle class="fil0" cx="981.409" cy="1008" id="_274162816" r="768"/><path class="fil1" d="M663.444 434.97c37.6736,-71.5665 82.4917,-130.284 132.481,-172.396 -44.3421,11.0126 -87.1594,25.8815 -128.074,44.2335 -5.04094,2.26299 -10.0524,4.57677 -15.0343,6.94488 -92.7945,44.087 -175.332,106.261 -243.071,181.957 64.8969,24.8398 131.846,45.5906 200.561,61.95 15.5929,-44.1154 33.4063,-85.2047 53.1378,-122.689z" id="_274162576"/><path class="fil1" d="M1302.3 568.761c-14.2394,-39.4913 -30.3496,-76.3169 -48.0886,-110.014 -71.1437,-135.154 -167.701,-218.747 -272.807,-218.747 -105.104,0 -201.664,83.5937 -272.807,218.747 -17.739,33.6969 -33.848,70.5224 -48.0874,110.014 4.18937,0.856299 8.38583,1.69724 12.5882,2.52047 99.7925,19.5626 202.852,29.7992 308.307,29.7992 105.456,0 208.515,-10.2366 308.309,-29.7992 4.20236,-0.823228 8.39764,-1.66417 12.587,-2.52047z" id="_274162192"/><path class="fil1" d="M1553.07 495.71c-67.7386,-75.6957 -150.276,-137.87 -243.07,-181.957 -4.25906,-2.02677 -8.54291,-4.01102 -12.8457,-5.95866 -41.576,-18.8055 -85.1291,-34.0098 -130.264,-45.2173 49.989,42.1098 94.8071,100.827 132.48,172.394 19.7315,37.4846 37.5461,78.574 53.139,122.689 68.713,-16.3583 135.664,-37.1102 200.561,-61.95z" id="_274161784"/><path class="fil1" d="M1693.9 722.5c-26.8205,-67.0394 -62.8063,-129.409 -106.406,-185.554 -71.0244,28.0701 -144.165,51.3354 -219.052,69.4122 11.1756,37.0039 20.8547,75.8185 28.8862,116.141l296.571 0z" id="_274161760"/><path class="fil1" d="M1345.24 722.5c-7.54252,-36.4181 -16.487,-71.4709 -26.7071,-104.917 -6.33071,1.31811 -12.6732,2.60079 -19.0264,3.84685 -103.143,20.2193 -209.479,30.7984 -318.099,30.7984 -108.62,0 -214.955,-10.5791 -318.097,-30.7984 -6.35433,-1.24606 -12.6969,-2.52874 -19.0276,-3.84685 -10.2201,33.4453 -19.1646,68.4992 -26.7071,104.917l727.664 0z" id="_274161688"/><path class="fil1" d="M565.487 722.5c8.0315,-40.3228 17.7094,-79.1374 28.885,-116.141 -74.8866,-18.0791 -148.026,-41.3433 -219.05,-69.4134 -43.5992,56.1449 -79.5862,118.515 -106.407,185.555l296.571 0z" id="_274161664"/><path class="fil1" d="M594.372 1409.64c-11.1756,-37.0051 -20.8535,-75.8197 -28.885,-116.143l-296.571 0c26.8217,67.0406 62.8063,129.411 106.407,185.556 71.0232,-28.0701 144.164,-51.3343 219.05,-69.4134z" id="_274161640"/><path class="fil1" d="M1318.53 1398.42c10.2201,-33.4465 19.1646,-68.5004 26.7071,-104.919l-727.664 0c7.54252,36.4181 16.487,71.472 26.7071,104.919 6.33189,-1.31811 12.6732,-2.60079 19.0276,-3.84685 103.142,-20.2193 209.477,-30.7984 318.097,-30.7984 108.62,0 214.956,10.5791 318.099,30.7984 6.35315,1.24606 12.6957,2.52874 19.0264,3.84685z" id="_274161736"/><path class="fil1" d="M1587.49 1479.05c43.6004,-56.1449 79.585,-118.514 106.406,-185.555l-296.571 0c-8.0315,40.3228 -17.7106,79.1374 -28.8862,116.143 74.8866,18.0768 148.028,41.3421 219.052,69.4122z" id="_274162144"/><path class="fil1" d="M1254.21 1557.25c17.739,-33.6969 33.8492,-70.5224 48.0886,-110.014 -4.18937,-0.856299 -8.38465,-1.69724 -12.587,-2.52047 -99.7937,-19.5626 -202.853,-29.7992 -308.309,-29.7992 -105.455,0 -208.514,10.2366 -308.307,29.7992 -4.20236,0.823228 -8.39882,1.66417 -12.5882,2.52047 14.2394,39.4913 30.3484,76.3169 48.0874,110.014 71.1437,135.154 167.704,218.747 272.807,218.747 105.106,0 201.664,-83.5937 272.807,-218.747z" id="_274161328"/><path class="fil1" d="M795.925 1753.43c-49.989,-42.1122 -94.8071,-100.83 -132.481,-172.396 -19.7315,-37.4846 -37.5449,-78.574 -53.1378,-122.689 -68.7142,16.3594 -135.664,37.1102 -200.561,61.95 67.7386,75.6957 150.276,137.87 243.071,181.957 4.98071,2.36929 9.99331,4.68307 15.0343,6.94488 40.9146,18.352 83.7319,33.2209 128.074,44.2335z" id="_274161088"/><path class="fil1" d="M1310 1702.25c92.7933,-44.087 175.331,-106.261 243.07,-181.957 -64.8969,-24.8398 -131.848,-45.5917 -200.561,-61.95 -15.5929,44.1154 -33.4075,85.2047 -53.139,122.689 -37.6736,71.5665 -82.4917,130.284 -132.48,172.394 45.1346,-11.2075 88.6878,-26.413 130.264,-45.2173 4.30276,-1.94882 8.58543,-3.93425 12.8457,-5.95866z" id="_274161016"/><rect class="fil2" height="571" id="_274160824" rx="128" ry="128" width="1761" x="127.499" y="722.5"/><path class="fil3" d="M537.711 1039.18l-41.8476 -162.002 -48.672 0 -44.452 163.618c-8.89016,35.3823 -13.7386,54.5988 -14.4579,57.6531l-16.5224 -59.9882 -44.452 -161.283 -48.9413 0 85.4906 279.372 49.4799 0 56.485 -214.984 10.8661 47.6846 44.452 167.3 49.1209 0 87.3768 -279.372 -46.0689 0 -47.863 161.463 -15.985 53.9705 -14.0091 -53.4307z" id="_274161352"/><path class="fil3" d="M985.998 877.175l-44.452 163.618c-8.89016,35.3823 -13.7386,54.5988 -14.4579,57.6531l-16.5224 -59.9882 -44.452 -161.283 -48.9413 0 85.4906 279.372 49.4799 0 56.485 -214.984 10.8661 47.6846 44.452 167.3 49.1209 0 87.3768 -279.372 -46.0689 0 -47.863 161.463 -15.985 53.9705 -14.0091 -53.4307 -41.8476 -162.002 -48.672 0z" id="_274161064"/><path class="fil3" d="M1524.81 877.175l-44.452 163.618c-8.89016,35.3823 -13.7386,54.5988 -14.4579,57.6531l-16.5224 -59.9882 -44.452 -161.283 -48.9413 0 85.4906 279.372 49.4799 0 56.485 -214.984 10.8661 47.6846 44.452 167.3 49.1209 0 86.7673 -277.424c-0.108661,-0.649606 -0.219685,-1.29921 -0.330709,-1.94764l-45.1287 0 -47.863 161.463 -15.985 53.9705 -14.0091 -53.4307 -41.8476 -162.002 -48.672 0z" id="_274160896"/></g></g><rect class="fil4" height="2016" width="2016"/></svg>